<svg width="25" height="12" viewBox="0 0 25 12" fill="none" xmlns="http://www.w3.org/2000/svg">
<path d="M24.1376 0.291016H0.220896C0.0989108 0.291016 0 0.383596 0 0.497774V11.2647C0 11.5101 0.212523 11.709 0.474715 11.709H12.3797C12.4383 11.709 12.4945 11.6872 12.5359 11.6484L24.2938 0.64397C24.433 0.513716 24.3344 0.291016 24.1376 0.291016Z" fill="#0964AF"/>
<path d="M1.20182 0.291016H0.220896C0.1904 0.291016 0.161331 0.296805 0.134926 0.307269C0.0556165 0.338664 0 0.41214 0 0.497774V11.2647C0 11.5101 0.212522 11.709 0.474714 11.709H0.980972V0.497774C0.980924 0.383596 1.07984 0.291016 1.20182 0.291016Z" fill="#004F9C"/>
<path d="M14.7867 5.75372H14.2523V3.9225H14.7867C15.4999 3.9225 16.0681 4.14391 16.0681 4.8284C16.0681 5.53271 15.4999 5.75372 14.7867 5.75372ZM8.2552 6.93161L9.02522 4.65931H9.04007L9.79386 6.93883C9.30835 7.10466 8.72568 7.10021 8.2552 6.93161ZM14.6443 2.43675L12.2153 2.43635V7.83743L10.0954 2.43635H7.99215L6.18131 6.95303C5.98977 5.81526 4.73095 5.42173 3.73833 5.12738C3.08411 4.92957 2.39287 4.63901 2.39787 4.32101C2.40286 4.05792 2.77053 3.8158 3.49859 3.85165C3.9852 3.87485 4.41548 3.91194 5.27208 4.29955L6.1178 2.92379C5.33427 2.55182 4.25286 2.31692 3.36752 2.31567H3.36209C1.6955 2.31567 0.374076 3.142 0.352714 4.47072C0.327975 5.79255 1.40072 6.3483 2.83814 6.76373C3.50987 6.95931 4.06089 7.12844 4.05418 7.49173C4.05152 7.62577 3.99609 7.7477 3.89471 7.8458C3.72705 8.00785 3.46938 8.06899 3.11294 8.077C2.42404 8.08832 1.91354 7.98808 1.10256 7.53973L0.352762 8.93218C1.81687 9.71184 3.97492 9.9691 5.31671 8.95966C5.34692 8.93561 5.37623 8.91321 5.40458 8.89046L5.16218 9.49693H7.36681L7.73624 8.44604C8.52339 8.6902 9.45184 8.70793 10.2982 8.45445L10.656 9.49693H14.2524V7.31654H15.0355C16.9309 7.31654 18.0553 6.41282 18.0553 4.898C18.0551 3.21111 16.9643 2.43675 14.6443 2.43675Z" fill="#F2F2F2"/>
<path d="M2.19017 7.98929C1.86394 7.9111 1.52387 7.77269 1.10258 7.53979L0.352783 8.93224C0.70713 9.12092 1.08955 9.27562 1.48966 9.39002L2.19017 7.98929Z" fill="#D6D6D8"/>
<path d="M3.48765 6.9717V6.94952C2.22769 6.48782 1.44306 5.86816 1.46447 4.6362C1.48384 3.3423 2.56163 2.51085 3.94495 2.34685C3.74698 2.32698 3.55283 2.31594 3.36752 2.31567H3.36209C1.69517 2.31567 0.374076 3.14222 0.352714 4.47073C0.327975 5.79255 1.40077 6.3483 2.83814 6.76373C3.0764 6.83311 3.29929 6.89915 3.48765 6.9717Z" fill="#D6D6D8"/>
<path d="M9.05127 2.43628H7.99237L5.16235 9.49689H6.58464L9.05127 2.43628Z" fill="#D6D6D8"/>
<path d="M12.1794 9.49689H13.6159V2.4365L12.2154 2.43628V7.83734L12.1794 7.74583V9.49689Z" fill="#D6D6D8"/>
</svg>
