<svg width="24" height="22" viewBox="0 0 24 22" fill="none" xmlns="http://www.w3.org/2000/svg">
<path d="M23.9311 5.34725C23.9127 5.15141 23.772 4.98318 23.571 4.91609C23.3695 4.8486 23.1439 4.89454 22.9922 5.03329L19.8901 7.87671L16.4512 6.87857L15.3623 3.72624L18.4645 0.882602C18.6163 0.743574 18.6658 0.53673 18.5927 0.352308C18.5188 0.167518 18.3357 0.0388081 18.1216 0.0218424C16.2376 -0.126952 14.3917 0.489638 13.057 1.71324C11.2291 3.38895 10.7451 5.83596 11.6023 7.92173C11.5086 7.99409 11.4161 8.07076 11.3249 8.15343L0.969952 17.1102C0.9663 17.1135 0.962699 17.1171 0.958747 17.1203C-0.259036 18.2366 -0.259036 20.053 0.958747 21.1695C2.17673 22.2858 4.14374 22.2722 5.36132 21.1559C5.36658 21.1514 5.37138 21.1469 5.37618 21.1419L15.062 11.5759C15.1503 11.4946 15.2323 11.4096 15.3096 11.3223C17.5856 12.1094 20.2567 11.6668 22.0862 9.98995C23.4206 8.76626 24.0937 7.074 23.9311 5.34725ZM3.80089 19.9636C3.35214 20.3749 2.62538 20.3746 2.17668 19.9636C1.72813 19.5527 1.72813 18.886 2.17668 18.4749C2.62538 18.0639 3.35214 18.0639 3.80089 18.4749C4.24944 18.886 4.24944 19.5527 3.80089 19.9636Z" fill="black"/>
</svg>
