<svg width="26" height="25" viewBox="0 0 26 25" fill="none" xmlns="http://www.w3.org/2000/svg">
<g clip-path="url(#clip0)">
<path d="M25.5711 7.90634C25.3079 7.7704 24.9877 7.78447 24.7359 7.9454L17.8753 12.3422V8.59539C17.8753 8.30633 17.7095 8.04227 17.4463 7.90634C17.183 7.7704 16.8629 7.78447 16.611 7.9454L8.90869 12.8812L8.18557 3.12518H8.93793C9.38643 3.12518 9.75042 2.77519 9.75042 2.34395V0.781479C9.75042 0.350237 9.38643 0.000244141 8.93793 0.000244141H0.813094C0.364603 0.000244141 0.000609948 0.350237 0.000609948 0.781479V2.34395C0.000609948 2.77519 0.364603 3.12518 0.813094 3.12518H1.56545L0.00223492 24.1638C-0.0140148 24.3795 0.0639837 24.592 0.218356 24.7513C0.372728 24.9091 0.587223 24.9998 0.813094 24.9998H25.1876C25.6361 24.9998 26.0001 24.6498 26.0001 24.2185V8.59539C26.0001 8.30633 25.8344 8.04227 25.5711 7.90634ZM14.6253 18.7499H11.3754V15.6249H14.6253V18.7499ZM22.7502 18.7499H19.5002V15.6249H22.7502V18.7499Z" fill="black"/>
</g>
<defs>
<clipPath id="clip0">
<rect width="26" height="25" fill="white" transform="matrix(-1 0 0 1 26 0)"/>
</clipPath>
</defs>
</svg>
