<svg width="23" height="24" viewBox="0 0 23 24" fill="none" xmlns="http://www.w3.org/2000/svg">
<path d="M22.9736 4.63474L22.9897 4.59125L11.5048 0L0.038617 4.63909L0.0012207 4.62387V4.65344V4.65822V19.3874L11.4997 24L22.9995 19.3874V4.6243L22.9736 4.63474ZM11.4942 0.902419L15.3894 2.3302L4.77052 6.54874L1.17325 5.09747L11.4942 0.902419ZM11.0897 22.9597L6.78313 21.1797L4.62179 20.349L0.822665 18.8151V5.85985L4.58354 7.37809V10.6177L4.91884 10.5216L5.14534 10.8403L5.46066 10.7651L5.7662 11.0952L6.03265 11.0013L6.46313 11.4362V8.13656L6.79757 8.27181L11.0897 10.004V22.9597ZM17.6574 3.27611L21.9286 5.05659L11.5027 9.26687L7.3037 7.57075L17.6574 3.27611ZM22.1785 18.8155L11.9111 22.9597V10.0027L22.1777 5.85811V18.8138L22.1785 18.8155Z" fill="white"/>
<path d="M11.9116 10.004L22.1782 5.85938V18.8151L11.9116 22.9597V10.004Z" fill="black"/>
<path d="M0.823486 5.85986L4.58437 7.3781V10.6177L4.91923 10.5216L5.14573 10.8403L5.46105 10.7651L5.7666 11.0952L6.03305 11.0013L6.46353 11.4379V8.13657L11.09 10.004V22.9597L0.823486 18.8156V5.85986Z" fill="black"/>
<path d="M4.77085 6.54954L1.17358 5.0974L11.4945 0.902344L15.3897 2.33013L4.77085 6.54954Z" fill="#040015"/>
<path d="M21.9291 5.05661L11.501 9.26688L7.302 7.5712L17.6578 3.27612L21.9291 5.05661Z" fill="black"/>
</svg>
