<svg width="26" height="26" viewBox="0 0 26 26" fill="none" xmlns="http://www.w3.org/2000/svg">
<g clip-path="url(#clip0)">
<path d="M1.55339 3.77111C1.06823 2.30062 1.86977 0.709402 3.34042 0.224154C4.81108 -0.261093 6.40221 0.5407 6.88738 2.01118L12.4878 19.5477C11.9735 19.4119 11.0827 19.4145 10.5367 19.5143L5.45606 2.48347C5.23124 1.80204 4.49411 1.43069 3.81271 1.65551C3.13128 1.88033 2.75993 2.61747 2.98475 3.29886C3.11513 3.69409 2.90046 4.12028 2.50519 4.25066C2.10997 4.38105 1.68382 4.16633 1.55339 3.77111ZM23.2962 16.8917L13.5286 20.2029C13.8495 20.5672 13.9414 20.7018 14.171 21.1569C14.1768 21.1743 14.3423 21.6369 14.3477 21.6544L23.7684 18.3231C24.1637 18.1927 24.3784 17.7665 24.248 17.3713C24.1176 16.976 23.6913 16.7613 23.2962 16.8917ZM14.2646 21.3995C14.7769 22.9522 13.9445 24.6246 12.3918 25.137C10.8392 25.6493 9.16526 24.8059 8.65295 23.2532C8.14064 21.7005 8.98407 20.0266 10.5367 19.5143C12.0893 19.002 13.7523 19.8469 14.2646 21.3995ZM12.8699 21.8618C12.6138 21.0855 11.7769 20.6639 11.0005 20.92C10.2242 21.1761 9.80247 22.0131 10.0586 22.7894C10.3147 23.5657 11.1517 23.9874 11.9281 23.7313C12.7044 23.4751 13.126 22.6381 12.8699 21.8618ZM21.0111 5.54658L24.0808 14.8504C24.146 15.048 24.0387 15.2611 23.841 15.3263L14.1794 18.514C13.9818 18.5792 13.7687 18.4719 13.7036 18.2742L10.6339 8.97046C10.5687 8.77283 10.676 8.55977 10.8737 8.49456L20.5352 5.30676C20.7329 5.24164 20.9459 5.34895 21.0111 5.54658ZM16.8624 5.40057L14.8998 -0.547645C14.8581 -0.673991 14.7219 -0.742645 14.5956 -0.700926L12.9127 -0.145708L12.9045 -0.130584L12.8904 -0.138316L12.0025 0.154651L12.7337 2.37055L11.7322 2.70099L11.0011 0.485088L10.1129 0.77814L10.1062 0.792754L10.0905 0.785532L8.41861 1.33718C8.29222 1.37886 8.22366 1.5151 8.26533 1.64145L10.2279 7.5897C10.2696 7.71605 10.4059 7.7847 10.5322 7.74298L16.7092 5.70488C16.8355 5.66316 16.9041 5.52691 16.8624 5.40057Z" fill="black"/>
</g>
<defs>
<clipPath id="clip0">
<rect width="26" height="26" fill="white"/>
</clipPath>
</defs>
</svg>
