<svg width="27" height="26" viewBox="0 0 27 26" fill="none" xmlns="http://www.w3.org/2000/svg">
<path d="M24.6374 14.7663V16.2401C24.6374 16.7192 24.2342 17.1074 23.7367 17.1074H19.2898C18.7923 17.1074 18.3891 16.7192 18.3891 16.2401V14.7663C18.3891 14.3462 18.6992 13.9961 19.111 13.9162V12.2572C19.111 11.9611 18.8608 11.7202 18.5534 11.7202H18.3704C17.542 13.1562 15.9795 14.0554 14.2364 14.0554C12.4934 14.0554 10.931 13.1562 10.1025 11.7202H3.26349C2.76594 11.7202 2.36279 11.332 2.36279 10.8529V7.98884C2.36279 7.50972 2.76594 7.1215 3.26349 7.1215H10.1951C10.7653 6.22283 11.6387 5.55047 12.6512 5.20273V4.12562C12.6512 4.06618 12.6575 4.00824 12.6694 3.95215H10.2515C9.754 3.95215 9.35085 3.56393 9.35085 3.08482V1.84279C9.35085 1.36368 9.754 0.975461 10.2515 0.975461H12.6511V0.867334C12.6511 0.388218 13.0543 0 13.5518 0H14.9208C15.4184 0 15.8215 0.388218 15.8215 0.867334V0.975461H18.2212C18.7188 0.975461 19.1219 1.36368 19.1219 1.84279V3.08482C19.1219 3.56393 18.7188 3.95215 18.2212 3.95215H15.8034C15.8152 4.00824 15.8215 4.06618 15.8215 4.12562V5.20273C16.834 5.55047 17.7075 6.22271 18.2777 7.1215H20.0116C22.1323 7.1215 23.8576 8.78285 23.8576 10.825V13.9076C24.2979 13.9646 24.6374 14.3268 24.6374 14.7663ZM23.7003 23.0948C23.6895 23.0426 23.6739 22.9922 23.6538 22.9439L22.3148 18.8361C22.1971 18.4744 21.849 18.2285 21.4556 18.2285C21.0621 18.2285 20.714 18.4744 20.5963 18.8361L19.2373 23.0052C19.2305 23.026 19.2246 23.0469 19.2196 23.068C19.1475 23.2879 19.1112 23.5142 19.1112 23.7423C19.1112 24.9872 20.163 25.9999 21.4557 25.9999C22.7483 25.9999 23.8001 24.9871 23.8001 23.7423C23.8 23.5236 23.7664 23.3064 23.7003 23.0948Z" fill="#000001"/>
</svg>
