<svg width="24" height="26" viewBox="0 0 24 26" fill="none" xmlns="http://www.w3.org/2000/svg">
<g clip-path="url(#clip0)">
<path d="M19.9966 16.2387C19.9966 14.1571 21.3437 10.6409 21.3437 10.6409C21.3437 10.6409 19.9305 9.8855 17.0292 9.8855C14.1279 9.8855 12.5862 10.679 12.5862 10.679C13.9053 12.6384 13.8879 16.4071 13.8879 16.4071C13.8879 18.9548 12.6964 21.754 12.6964 26.0001C15.2963 26.0001 21.551 26.0001 21.551 26.0001C21.5509 21.2821 19.9966 18.3202 19.9966 16.2387Z" fill="black"/>
<path d="M0.937804 26.0001C3.53774 26.0001 9.79241 26.0001 9.79241 26.0001C9.79241 21.2822 8.23813 18.3203 8.23813 16.2387C8.23813 14.1571 9.58514 10.6409 9.58514 10.6409C9.58514 10.6409 8.17196 9.8855 5.27063 9.8855C2.36934 9.8855 0.827637 10.679 0.827637 10.679C2.14678 12.6384 2.12938 16.4071 2.12938 16.4071C2.12933 18.9549 0.937804 21.754 0.937804 26.0001Z" fill="black"/>
<path d="M10.994 1.13798C10.994 0.50956 10.5236 0 9.94357 0C9.41746 0 8.9859 0.420407 8.90925 0.966724C8.6815 0.827049 8.4219 0.740707 8.14145 0.740707C7.3149 0.740707 6.64506 1.43568 6.58499 2.31458C6.34065 2.14382 6.0515 2.04234 5.73881 2.04234C4.87259 2.04234 4.17055 2.80288 4.17055 3.74128C4.17055 3.86255 4.18317 3.98003 4.20539 4.09419C4.02987 4.03568 3.84697 3.99512 3.6536 3.99512C2.61186 3.99512 1.76746 4.90994 1.76746 6.03845C1.76746 7.16695 2.61191 8.08177 3.6536 8.08177C3.86615 8.08177 4.06731 8.03505 4.25809 7.96474C4.59688 8.5078 5.17044 8.86446 5.82111 8.86446C6.86285 8.86446 7.70725 7.94964 7.70725 6.82114C7.70725 6.56167 7.65802 6.31582 7.57659 6.08749C8.42582 6.06622 9.10868 5.31752 9.10868 4.39279C9.10868 4.20126 9.07298 4.02009 9.01897 3.84834C9.43572 3.54309 9.70966 3.02648 9.70966 2.44049C9.70966 2.37162 9.69832 2.30654 9.69095 2.23998C9.77238 2.26169 9.85599 2.27679 9.94352 2.27679C10.5241 2.2759 10.994 1.76639 10.994 1.13798Z" fill="black"/>
<path d="M22.7524 1.13797C22.7524 0.50956 22.2821 0 21.702 0C21.176 0 20.7444 0.420407 20.6677 0.966724C20.44 0.827048 20.1804 0.740707 19.9 0.740707C19.0734 0.740707 18.4036 1.43568 18.3434 2.31458C18.0992 2.14382 17.81 2.04234 17.4973 2.04234C16.631 2.04234 15.9291 2.80288 15.9291 3.74128C15.9291 3.86255 15.9417 3.98003 15.9638 4.09419C15.7883 4.03568 15.6055 3.99512 15.4121 3.99512C14.3704 3.99512 13.526 4.90994 13.526 6.03845C13.526 7.16695 14.3704 8.08177 15.4121 8.08177C16.3171 8.08177 17.0718 7.39059 17.2542 6.46916C17.6018 6.96264 18.1445 7.2863 18.7615 7.2863C19.8116 7.2863 20.6629 6.36393 20.6629 5.22644C20.6629 4.79573 20.5402 4.39658 20.3315 4.06632C20.9856 3.86201 21.4673 3.21569 21.4673 2.44098C21.4673 2.37211 21.456 2.30698 21.4486 2.24048C21.53 2.26218 21.6136 2.27728 21.7012 2.27728C22.2826 2.2759 22.7524 1.76639 22.7524 1.13797Z" fill="black"/>
</g>
<defs>
<clipPath id="clip0">
<rect width="24" height="26" fill="white"/>
</clipPath>
</defs>
</svg>
