<svg width="39" height="20" viewBox="0 0 39 20" fill="none" xmlns="http://www.w3.org/2000/svg">
<path d="M37.6547 0.484863H0.344598C0.154301 0.484863 0 0.639164 0 0.829461V18.7743C0 19.1833 0.331535 19.5148 0.740555 19.5148H19.3124C19.4038 19.5148 19.4914 19.4786 19.556 19.4139L37.8984 1.07312C38.1155 0.856031 37.9617 0.484863 37.6547 0.484863Z" fill="#0964AF"/>
<path d="M1.87484 0.484863H0.344598C0.297023 0.484863 0.251676 0.494512 0.210484 0.511953C0.0867617 0.564277 0 0.686738 0 0.829461V18.7743C0 19.1833 0.331535 19.5148 0.740555 19.5148H1.53032V0.829461C1.53024 0.639164 1.68454 0.484863 1.87484 0.484863Z" fill="#004F9C"/>
<path d="M23.0673 9.58969H22.2337V6.53766H23.0673C24.18 6.53766 25.0663 6.90668 25.0663 8.04749C25.0663 9.22134 24.18 9.58969 23.0673 9.58969ZM12.8782 11.5529L14.0794 7.76569H14.1026L15.2785 11.5649C14.5211 11.8413 13.6122 11.8338 12.8782 11.5529ZM22.8453 4.06142L19.056 4.06075V13.0625L15.7489 4.06075H12.4679L9.64295 11.5886C9.34414 9.69226 7.38039 9.03639 5.83189 8.5458C4.81131 8.21612 3.73298 7.73184 3.74078 7.20184C3.74857 6.76336 4.32213 6.35983 5.4579 6.41958C6.21701 6.45825 6.88825 6.52007 8.22455 7.16607L9.54387 4.87315C8.32156 4.2532 6.63457 3.8617 5.25343 3.85962H5.24497C2.64509 3.85962 0.583661 5.23682 0.550337 7.45137C0.511743 9.65441 2.18523 10.5807 4.4276 11.273C5.47549 11.599 6.33509 11.8809 6.32463 12.4864C6.32047 12.7098 6.23401 12.913 6.07585 13.0765C5.8143 13.3466 5.41233 13.4485 4.85629 13.4618C3.7816 13.4807 2.98523 13.3136 1.7201 12.5664L0.550411 14.8871C2.83442 16.1866 6.20098 16.6153 8.29417 14.9329C8.3413 14.8929 8.38702 14.8555 8.43125 14.8176L8.05311 15.8284H11.4923L12.0686 14.0769C13.2966 14.4838 14.745 14.5134 16.0653 14.0909L16.6234 15.8284H22.2339V12.1944H23.4555C26.4124 12.1944 28.1663 10.6882 28.1663 8.1635C28.1661 5.35201 26.4644 4.06142 22.8453 4.06142Z" fill="#F2F2F2"/>
<path d="M3.41674 13.3153C2.90782 13.185 2.37731 12.9543 1.7201 12.5662L0.550415 14.8869C1.1032 15.2014 1.69977 15.4592 2.32395 15.6499L3.41674 13.3153Z" fill="#D6D6D8"/>
<path d="M5.44083 11.6194V11.5825C3.4753 10.8129 2.25128 9.78019 2.28468 7.72692C2.31489 5.57042 3.99624 4.18468 6.15422 3.91133C5.8454 3.87823 5.54251 3.85982 5.25343 3.85938H5.24497C2.64457 3.85938 0.583661 5.23695 0.550337 7.45113C0.511743 9.65417 2.1853 10.5804 4.4276 11.2728C4.79929 11.3884 5.147 11.4985 5.44083 11.6194Z" fill="#D6D6D8"/>
<path d="M14.1199 4.06055H12.4681L8.05322 15.8282H10.272L14.1199 4.06055Z" fill="#D6D6D8"/>
<path d="M19.0001 15.8282H21.241V4.06092L19.0562 4.06055V13.0623L19.0001 12.9098V15.8282Z" fill="#D6D6D8"/>
</svg>
