<svg width="34" height="16" viewBox="0 0 34 16" fill="none" xmlns="http://www.w3.org/2000/svg">
<path d="M32.8272 0.387939H0.300418C0.134519 0.387939 0 0.51138 0 0.663617V15.0195C0 15.3467 0.289031 15.6119 0.645612 15.6119H16.8364C16.9161 15.6119 16.9925 15.5829 17.0489 15.5312L33.0396 0.858546C33.2289 0.684874 33.0948 0.387939 32.8272 0.387939Z" fill="#0964AF"/>
<path d="M1.63448 0.387939H0.300418C0.258943 0.387939 0.21941 0.395658 0.183499 0.409611C0.0756384 0.451471 0 0.549439 0 0.663617V15.0195C0 15.3467 0.289031 15.6119 0.645612 15.6119H1.33412V0.663617C1.33406 0.51138 1.46858 0.387939 1.63448 0.387939Z" fill="#004F9C"/>
<path d="M20.11 7.6717H19.3833V5.23008H20.11C21.0801 5.23008 21.8527 5.52529 21.8527 6.43795C21.8527 7.37702 21.0801 7.6717 20.11 7.6717ZM11.2272 9.24223L12.2744 6.2125H12.2946L13.3198 9.25185C12.6595 9.47297 11.8671 9.46703 11.2272 9.24223ZM19.9164 3.24909L16.6129 3.24855V10.45L13.7299 3.24855H10.8695L8.40671 9.27079C8.14621 7.75376 6.43422 7.22906 5.08425 6.83659C4.19451 6.57285 3.25443 6.18542 3.26123 5.76143C3.26802 5.41064 3.76805 5.08782 4.75821 5.13561C5.42 5.16655 6.00518 5.21601 7.17016 5.73281L8.32033 3.89847C7.25473 3.40251 5.78402 3.08931 4.57995 3.08765H4.57257C2.30601 3.08765 0.50887 4.18941 0.479818 5.96105C0.446172 7.72348 1.90511 8.46448 3.85999 9.01839C4.77354 9.27916 5.52294 9.50467 5.51382 9.98905C5.51019 10.1678 5.43481 10.3303 5.29693 10.4611C5.06891 10.6772 4.71848 10.7587 4.23372 10.7694C3.29682 10.7845 2.60255 10.6508 1.49961 10.0531L0.479883 11.9097C2.47107 12.9492 5.40602 13.2922 7.23085 11.9463C7.27194 11.9142 7.3118 11.8844 7.35036 11.854L7.0207 12.6627H10.019L10.5214 11.2615C11.5919 11.587 12.8546 11.6106 14.0057 11.2727L14.4923 12.6627H19.3834V9.75547H20.4484C23.0262 9.75547 24.5553 8.55051 24.5553 6.53075C24.5551 4.28156 23.0716 3.24909 19.9164 3.24909Z" fill="#F2F2F2"/>
<path d="M2.97859 10.6523C2.53491 10.548 2.07241 10.3635 1.49946 10.053L0.479736 11.9096C0.961648 12.1611 1.48173 12.3674 2.02589 12.52L2.97859 10.6523Z" fill="#D6D6D8"/>
<path d="M4.74333 9.29567V9.26611C3.02978 8.6505 1.96269 7.8243 1.99181 6.18169C2.01814 4.45648 3.48394 3.34789 5.36526 3.12921C5.09603 3.10273 4.83197 3.088 4.57995 3.08765H4.57257C2.30556 3.08765 0.50887 4.18971 0.479818 5.96105C0.446172 7.72348 1.90517 8.46448 3.85999 9.01839C4.18403 9.1109 4.48717 9.19895 4.74333 9.29567Z" fill="#D6D6D8"/>
<path d="M12.3097 3.24854H10.8696L7.02075 12.6627H8.95506L12.3097 3.24854Z" fill="#D6D6D8"/>
<path d="M16.5642 12.6627H18.5178V3.24883L16.6131 3.24854V10.4499L16.5642 10.3279V12.6627Z" fill="#D6D6D8"/>
</svg>
